<?xml version="1.0" encoding="utf-8"?>
<!-- Generator: Adobe Illustrator 16.0.0, SVG Export Plug-In . SVG Version: 6.00 Build 0)  -->
<!DOCTYPE svg PUBLIC "-//W3C//DTD SVG 1.1//EN" "http://www.w3.org/Graphics/SVG/1.1/DTD/svg11.dtd">
<svg version="1.1" id="Capa_1" xmlns="http://www.w3.org/2000/svg" xmlns:xlink="http://www.w3.org/1999/xlink" x="0px" y="0px"
	 width="1000px" height="1000px" viewBox="0 0 1000 1000" enable-background="new 0 0 1000 1000" xml:space="preserve">
<g>
	<g>
		<path d="M499.999,0C223.857,0,0,223.857,0,499.999c0,276.142,223.857,499.999,499.999,499.999
			c276.142,0,499.999-223.857,499.999-499.999C999.705,223.98,776.02,0.295,499.999,0z M710.568,515.93
			c-3.462,6.943-9.09,12.573-16.034,16.034v0.178L408.82,675c-17.646,8.815-39.095,1.661-47.912-15.984
			c-2.507-5.016-3.799-10.553-3.768-16.158V357.144c-0.009-19.726,15.974-35.722,35.698-35.732
			c5.547-0.002,11.021,1.287,15.98,3.767l285.714,142.858C712.188,476.834,719.367,498.276,710.568,515.93z"/>
	</g>
</g>
<g>
	<path fill="#FFFFFF" d="M418.688,303.375c-36.619-21.003-66.304-3.798-66.304,38.402V653.19c0,42.241,29.685,59.424,66.304,38.44
		l272.189-156.099c36.631-21.013,36.631-55.053,0-76.062L418.688,303.375z"/>
</g>
</svg>
